<?xml version="1.0" encoding="UTF-8"?>
<svg width="11px" height="11px" viewBox="0 0 11 11" version="1.1" xmlns="http://www.w3.org/2000/svg" xmlns:xlink="http://www.w3.org/1999/xlink">
    <!-- Generator: Sketch 52.4 (67378) - http://www.bohemiancoding.com/sketch -->
    <title>Path</title>
    <desc>Created with Sketch.</desc>
    <g id="Page-1" stroke="none" stroke-width="1" fill="none" fill-rule="evenodd">
        <g id="Artboard" transform="translate(-519.000000, -269.000000)" fill="#BFBFBF">
            <g id="e-remove" transform="translate(519.000000, 269.000000)">
                <path d="M10.6803636,0.319636364 C10.2543638,-0.106234842 9.56381802,-0.106234842 9.13781818,0.319636364 L5.54545455,3.912 L1.95309091,0.319636364 C1.52504121,-0.0937878649 0.844634789,-0.087875317 0.423834281,0.33292519 C0.00303377393,0.753725698 -0.00287877401,1.43413212 0.410545455,1.86218182 L4.00290909,5.45454545 L0.410545455,9.04690909 C0.126956453,9.32080851 0.0132226212,9.72641225 0.113057647,10.1078262 C0.212892673,10.4892401 0.510759903,10.7871073 0.892173828,10.8869424 C1.27358775,10.9867774 1.67919149,10.8730435 1.95309091,10.5894545 L5.54545455,6.99709091 L9.13781818,10.5894545 C9.56586788,11.0028788 10.2462743,10.9969662 10.6670748,10.5761657 C11.0878753,10.1553652 11.0937879,9.47495879 10.6803636,9.04690909 L7.088,5.45454545 L10.6803636,1.86218182 C11.1062348,1.43618198 11.1062348,0.745636202 10.6803636,0.319636364 Z" id="Path"></path>
            </g>
        </g>
    </g>
</svg>